<svg xmlns="http://www.w3.org/2000/svg" height="100" width="100" viewBox="-15 -130 660 660"><g fill="none" fill-rule="evenodd"><g stroke-width="20" transform="translate(192)"><path fill="#4A4EE5" fill-opacity="0.61" stroke="#3A3A3A" d="M402.31 180.77v71.52L256.22 403.97h-68.29L35.11 256.91l.14-69.33L178.11 39.91h77.86z"></path><rect width="310" height="310" x="64.17" y="64.17" fill="#FFF" fill-opacity="0.15" stroke="#4145C9" rx="5" transform="rotate(-46 219.17 219.17)"></rect></g><path stroke="#8183CA" stroke-linecap="square" stroke-width="20" d="M228.25 1.82h172m-171.5 434h177.5"></path><path stroke="#979797" stroke-linecap="square" stroke-width="20" d="M11.25 221.82h168"></path><path fill="#FFF" fill-opacity="0.47" d="m406.25 1.82 219.72 213H438.34l-219.63-213z"></path><path stroke="#8183CA" stroke-linecap="square" stroke-width="20" d="M447.75 214.32h171.5"></path><path fill="#4A4EE5" fill-opacity="0.61" stroke="#3A3A3A" stroke-width="16" d="M402.31 180.77v71.52L256.22 403.97h-68.29L35.11 256.91l.14-69.33L178.11 39.91h77.86z"></path><rect width="310" height="310" x="64.17" y="64.17" fill="#FFF" fill-opacity="0.15" stroke="#4145C9" stroke-width="20" rx="5" transform="rotate(-46 219.17 219.17)"></rect></g></svg>
